HIERARCHY
ROOT Hips
{
	OFFSET 49.342400 -8.183114 86.447098
	CHANNELS 6 Xposition Yposition Zposition Xrotation Yrotation Zrotation
	JOINT spine
	{
		OFFSET 0.000000 -0.393701 6.846367
		CHANNELS 3 Xrotation Yrotation Zrotation
		JOINT spine1
		{
			OFFSET 0.000000 -0.000002 9.496208
			CHANNELS 3 Xrotation Yrotation Zrotation
			JOINT spine2
			{
				OFFSET 0.000000 -0.000001 9.099091
				CHANNELS 3 Xrotation Yrotation Zrotation
				JOINT Neck
				{
					OFFSET 0.000000 -1.113784 23.361206
					CHANNELS 3 Xrotation Yrotation Zrotation
					JOINT Head
					{
						OFFSET 0.000000 -0.000001 7.058014
						CHANNELS 3 Xrotation Yrotation Zrotation
						End Site
						{
							OFFSET 0.000000 5.634187 17.084396
						}
					}
				}
				JOINT RightShoulder
				{
					OFFSET -3.831360 0.533489 9.826309
					CHANNELS 3 Xrotation Yrotation Zrotation
					JOINT RightArm
					{
						OFFSET 0.000000 -0.000002 12.888107
						CHANNELS 3 Xrotation Yrotation Zrotation
						JOINT RightArmRoll
						{
							OFFSET 0.000000 -0.000001 6.506165
							CHANNELS 3 Xrotation Yrotation Zrotation
							JOINT RightForeArm
							{
								OFFSET 0.000000 -0.000003 18.950104
								CHANNELS 3 Xrotation Yrotation Zrotation
								JOINT RightForeArmRoll
								{
									OFFSET 0.000000 -0.000002 7.300919
									CHANNELS 3 Xrotation Yrotation Zrotation
									JOINT RightHand
									{
										OFFSET 0.000000 -0.000002 14.651398
										CHANNELS 3 Xrotation Yrotation Zrotation
										End Site
										{
											OFFSET 0.000000 0.000000 0.100006
										}
									}
								}
							}
						}
					}
				}
				JOINT LeftShoulder
				{
					OFFSET 3.831360 0.533489 9.826309
					CHANNELS 3 Xrotation Yrotation Zrotation
					JOINT LeftArm
					{
						OFFSET 0.000000 -0.000002 12.888107
						CHANNELS 3 Xrotation Yrotation Zrotation
						JOINT LeftArmRoll
						{
							OFFSET 0.000000 -0.000001 6.506165
							CHANNELS 3 Xrotation Yrotation Zrotation
							JOINT LeftForeArm
							{
								OFFSET 0.000000 -0.000003 18.950104
								CHANNELS 3 Xrotation Yrotation Zrotation
								JOINT LeftForeArmRoll
								{
									OFFSET 0.000000 -0.000002 7.300934
									CHANNELS 3 Xrotation Yrotation Zrotation
									JOINT LeftHand
									{
										OFFSET 0.000000 -0.000002 14.651398
										CHANNELS 3 Xrotation Yrotation Zrotation
										End Site
										{
											OFFSET 0.000000 0.000000 0.100006
										}
									}
								}
							}
						}
					}
				}
			}
		}
	}
	JOINT RightUpLeg
	{
		OFFSET -6.068371 0.933477 -1.112778
		CHANNELS 3 Xrotation Yrotation Zrotation
		JOINT RightUpLegRoll
		{
			OFFSET 0.000000 -0.000003 17.179596
			CHANNELS 3 Xrotation Yrotation Zrotation
			JOINT RightLeg
			{
				OFFSET 0.000000 0.000003 -21.274300
				CHANNELS 3 Xrotation Yrotation Zrotation
				JOINT RightLegRoll
				{
					OFFSET 0.000000 -0.000003 21.343903
					CHANNELS 3 Xrotation Yrotation Zrotation
					JOINT RightFoot
					{
						OFFSET 0.000000 -0.000003 17.765198
						CHANNELS 3 Xrotation Yrotation Zrotation
						JOINT RightToeBase
						{
							OFFSET 0.000000 -0.000002 14.850807
							CHANNELS 3 Xrotation Yrotation Zrotation
							End Site
							{
								OFFSET 0.006294 0.829003 7.192123
							}
						}
					}
				}
			}
		}
	}
	JOINT LeftUpLeg
	{
		OFFSET 6.068371 0.933477 -1.112778
		CHANNELS 3 Xrotation Yrotation Zrotation
		JOINT LeftUpLegRoll
		{
			OFFSET 0.000000 -0.000003 17.179703
			CHANNELS 3 Xrotation Yrotation Zrotation
			JOINT LeftLeg
			{
				OFFSET 0.000000 -0.000003 21.274200
				CHANNELS 3 Xrotation Yrotation Zrotation
				JOINT LeftLegRoll
				{
					OFFSET 0.000000 -0.000004 21.541199
					CHANNELS 3 Xrotation Yrotation Zrotation
					JOINT LeftFoot
					{
						OFFSET 0.000000 -0.000003 17.567902
						CHANNELS 3 Xrotation Yrotation Zrotation
						JOINT LeftToeBase
						{
							OFFSET 0.000000 -0.000002 14.850800
							CHANNELS 3 Xrotation Yrotation Zrotation
							End Site
							{
								OFFSET -0.028210 0.829004 7.192139
							}
						}
					}
				}
			}
		}
	}
}
MOTION
Frames: 4
Frame Time: 0.041667
49.854595 -6.209691 86.415817 -3.464784 0.482082 -1.181332 -1.556349 -1.509984 1.313468 0.926554 -3.043873 2.612605 2.571866 -3.012368 2.648876 3.359648 18.449992 0.822502 10.231088 -8.429131 -0.666852 -8.971394 -45.808883 -9.627806 -46.230617 -162.097355 -88.531211 0.000004 0.000037 0.000000 45.516562 -13.413742 9.286239 -0.000008 0.000005 -3.005120 -5.000230 -7.998864 0.000147 -25.195700 73.740163 29.163248 -58.369417 159.703470 67.614700 -0.000001 0.000001 -0.000001 33.582251 24.978714 -6.296105 0.000000 -0.000008 3.008960 -5.000200 7.998780 -0.000172 -13.429546 -181.019370 -2.989594 -179.999991 0.000005 -1.378997 155.319936 -3.169155 -1.197258 -0.000002 -0.000000 0.751399 72.497766 7.572543 -0.056864 25.456957 -7.355616 0.000001 -11.944198 175.354343 -1.054534 -0.000004 -0.000005 -0.769027 -26.263785 1.522895 1.306950 -0.000002 0.000009 -0.433928 74.873285 -5.820913 -4.924242 25.456957 7.355614 -0.000001 
49.854897 -6.206923 86.417709 -3.456019 0.478296 -1.178505 -1.555891 -1.508574 1.312498 0.927125 -3.040333 2.611188 2.572439 -3.008851 2.647418 3.325496 18.436907 0.849375 10.225871 -8.411757 -0.646620 -8.955801 -45.773797 -9.605219 -46.209505 -162.025228 -88.424674 0.000004 0.000038 -0.000005 45.591506 -13.333419 9.255624 -0.000008 0.000009 -3.005118 -5.000230 -7.998859 0.000147 -25.113938 73.702147 29.075583 -58.186313 159.525693 68.193811 -0.000003 0.000001 -0.000001 34.144717 25.177221 -6.531030 0.000000 -0.000011 3.008961 -5.000199 7.998772 -0.000172 -13.441031 -181.014466 -2.987242 -179.999991 0.000005 -1.378996 155.316903 -3.169985 -1.196844 -0.000002 -0.000001 0.751424 72.498367 7.573426 -0.057068 25.456960 -7.355617 0.000001 -11.953463 175.358413 -1.050490 -0.000005 -0.000005 -0.769190 -26.261693 1.523551 1.306983 -0.000003 0.000009 -0.433807 74.871140 -5.821208 -4.923689 25.456957 7.355613 -0.000001 
49.857296 -6.203373 86.414909 -3.447207 0.475133 -1.175560 -1.555667 -1.507375 1.311637 0.927120 -3.037365 2.609790 2.572432 -3.005895 2.645985 3.296754 18.424126 0.875901 10.217807 -8.393689 -0.626258 -8.943754 -45.744331 -9.587587 -46.189824 -161.949673 -88.369452 0.000002 0.000038 0.000003 45.668199 -13.255442 9.233147 -0.000008 0.000009 -3.005111 -5.000230 -7.998863 0.000147 -25.045923 73.669683 29.002660 -58.014213 159.360949 68.761044 -0.000000 0.000001 -0.000001 34.679920 25.360147 -6.758201 0.000001 -0.000009 3.008960 -5.000199 7.998771 -0.000173 -13.452315 -181.010518 -2.985642 -179.999991 0.000005 -1.378000 155.314581 -3.170845 -1.196384 -0.000001 -0.000000 0.751448 72.498374 7.574234 -0.057444 25.456959 -7.355615 0.000001 -11.963022 175.362498 -1.047033 -0.000004 -0.000004 -0.769311 -26.259502 1.524288 1.307018 -0.000002 0.000009 -0.433681 74.868777 -5.821467 -4.922946 25.456957 7.355614 -0.000002 
49.855995 -6.204653 86.416412 -3.438363 0.472732 -1.172537 -1.555695 -1.506435 1.310882 0.926482 -3.035054 2.608418 2.571786 -3.003609 2.644578 3.274100 18.412032 0.902027 10.206583 -8.374913 -0.605720 -8.935662 -45.721351 -9.575503 -46.170402 -161.872560 -88.374001 0.000002 0.000037 -0.000003 45.746759 -13.181226 9.221033 -0.000008 0.000011 -3.005099 -5.000232 -7.998861 0.000148 -24.993447 73.643667 28.946427 -57.854482 159.214291 69.311189 0.000000 0.000001 -0.000001 35.177715 25.525633 -6.973255 0.000001 -0.000005 3.008960 -5.000199 7.998775 -0.000173 -13.463202 -181.007567 -2.985011 -179.999991 0.000005 -1.377999 155.313147 -3.171715 -1.196878 -0.000002 -0.000001 0.751472 72.497854 7.574836 -0.057615 25.456959 -7.355616 0.000001 -11.972715 175.364615 -1.043942 -0.000003 -0.000004 -0.769377 -26.257313 1.525124 1.307055 -0.000002 0.000009 -0.433549 74.866154 -5.821667 -4.922312 25.456959 7.355614 -0.000001 
